<?xml version="1.0" encoding="UTF-8" standalone="no"?>
<!DOCTYPE svg PUBLIC "-//W3C//DTD SVG 1.1//EN" "http://www.w3.org/Graphics/SVG/1.1/DTD/svg11.dtd">
<svg xmlns="http://www.w3.org/2000/svg" version="1.1" viewBox="0.00 0.00 250.00 68.00">
<path fill="#444444" d="
  M 50.01 0.00
  Q 49.98 4.24 47.19 6.07
  Q 45.35 7.29 41.34 7.25
  Q 32.79 7.17 24.26 7.26
  Q 16.41 7.34 16.44 15.25
  Q 16.49 35.37 16.53 53.50
  Q 16.55 58.13 20.14 59.79
  Q 21.88 60.59 26.52 60.61
  Q 31.00 60.62 40.81 60.57
  Q 45.32 60.55 47.03 61.56
  Q 50.12 63.36 50.08 68.00
  L 14.39 68.00
  Q 2.56 66.36 0.00 55.38
  L 0.00 12.13
  Q 2.43 2.48 12.50 0.00
  L 50.01 0.00
  Z"
/>
<path fill="#444444" d="
  M 75.68 0.00
  Q 75.76 23.84 75.66 47.69
  Q 75.63 56.76 74.02 60.05
  Q 71.00 66.19 62.74 68.00
  L 59.14 68.00
  Q 59.10 41.75 59.12 15.50
  Q 59.12 5.94 67.53 1.85
  Q 69.63 0.83 71.86 0.00
  L 75.68 0.00
  Z"
/>
<path fill="#444444" d="
  M 134.54 0.00
  Q 134.46 4.33 131.55 6.13
  Q 129.84 7.18 125.55 7.20
  Q 113.04 7.25 109.22 7.18
  Q 105.63 7.13 104.06 8.37
  Q 101.43 10.43 101.23 13.49
  Q 100.88 18.94 101.24 25.54
  Q 101.46 29.69 105.51 29.91
  Q 109.54 30.13 126.32 30.01
  Q 129.98 29.98 131.82 33.67
  L 132.40 34.82
  Q 133.88 37.78 130.35 37.72
  Q 114.10 37.45 108.33 37.69
  Q 104.36 37.85 102.09 41.03
  Q 100.89 42.71 101.07 47.18
  Q 101.12 48.40 101.12 52.95
  C 101.11 55.97 101.71 58.00 104.34 59.44
  Q 106.11 60.42 109.40 60.42
  Q 116.02 60.43 124.97 60.37
  Q 129.45 60.34 131.37 61.40
  Q 134.73 63.23 134.61 68.00
  L 99.12 68.00
  Q 97.09 67.44 95.13 66.78
  Q 84.35 63.11 84.40 51.50
  Q 84.46 34.24 84.48 16.98
  Q 84.50 3.09 97.52 0.00
  L 134.54 0.00
  Z"
/>
<path fill="#444444" d="
  M 183.65 0.00
  Q 195.51 2.41 196.89 13.94
  Q 197.07 15.42 196.93 22.60
  Q 196.86 26.49 195.88 28.27
  Q 194.51 30.77 192.12 32.95
  Q 191.21 33.78 192.18 34.54
  Q 196.41 37.86 196.86 42.96
  Q 197.33 48.28 196.65 54.31
  Q 195.66 63.13 187.14 66.40
  Q 183.89 67.65 180.78 67.66
  A 0.43 0.43 0.0 0 1 180.35 67.23
  Q 180.34 58.50 180.33 45.00
  Q 180.33 40.52 177.24 38.62
  Q 175.32 37.44 171.05 37.48
  Q 164.86 37.52 164.03 37.60
  Q 161.32 37.84 162.50 34.93
  Q 163.16 33.29 163.39 32.95
  Q 165.13 30.35 167.90 30.12
  Q 168.44 30.08 173.55 29.90
  Q 180.02 29.68 180.26 23.03
  Q 180.34 20.56 180.35 14.79
  Q 180.35 10.23 177.11 8.19
  Q 175.42 7.12 170.70 7.11
  C 165.41 7.10 159.49 6.37 157.11 10.73
  Q 156.35 12.12 156.36 16.26
  Q 156.36 65.98 156.36 67.06
  Q 156.36 67.65 155.91 67.64
  Q 151.20 67.54 147.10 65.15
  Q 140.39 61.25 139.98 52.74
  Q 139.86 50.19 139.85 20.88
  Q 139.85 12.61 141.48 8.85
  Q 144.29 2.40 151.54 0.00
  L 183.65 0.00
  Z"
/>
<path fill="#444444" d="
  M 250.00 0.00
  L 250.00 0.67
  Q 248.40 6.98 242.27 6.99
  Q 241.31 6.99 234.68 7.04
  Q 234.19 7.04 234.18 7.54
  Q 234.08 19.47 234.15 49.50
  Q 234.17 55.49 233.03 58.53
  Q 230.87 64.29 224.61 66.57
  Q 222.52 67.33 220.31 68.00
  L 217.62 68.00
  L 217.62 7.42
  A 0.41 0.40 89.9 0 0 217.21 7.00
  L 200.77 7.07
  A 0.74 0.73 -84.9 0 1 200.05 6.20
  Q 200.84 1.81 204.67 0.00
  L 250.00 0.00
  Z"
/>
</svg>
